<?xml version="1.0" encoding="utf-8"?>
<!-- Generator: Adobe Illustrator 24.3.0, SVG Export Plug-In . SVG Version: 6.00 Build 0)  -->
<svg version="1.1" id="Layer_1" xmlns="http://www.w3.org/2000/svg" xmlns:xlink="http://www.w3.org/1999/xlink" x="0px" y="0px"
	 viewBox="0 0 16 16" style="enable-background:new 0 0 16 16;" xml:space="preserve">
<style type="text/css">
	.st0{opacity:0.8;}
	.st1{clip-path:url(#SVGID_2_);}
	.st2{opacity:0.85;clip-path:url(#SVGID_4_);}
	.st3{opacity:0.78;clip-path:url(#SVGID_6_);}
	.st4{clip-path:url(#SVGID_8_);fill:#3A55A5;}
	.st5{opacity:0.56;clip-path:url(#SVGID_10_);}
	.st6{clip-path:url(#SVGID_12_);fill:#EF437C;}
	.st7{opacity:0.62;clip-path:url(#SVGID_14_);}
	.st8{clip-path:url(#SVGID_16_);fill:#FBE313;}
	.st9{clip-path:url(#SVGID_18_);}
	.st10{opacity:0.85;clip-path:url(#SVGID_20_);}
	.st11{opacity:0.78;clip-path:url(#SVGID_22_);}
	.st12{clip-path:url(#SVGID_24_);fill:#3A55A5;}
	.st13{opacity:0.6;clip-path:url(#SVGID_26_);}
	.st14{clip-path:url(#SVGID_28_);fill:#CEAAC6;}
	.st15{opacity:0.62;clip-path:url(#SVGID_30_);}
	.st16{clip-path:url(#SVGID_32_);fill:#FBE313;}
	.st17{clip-path:url(#SVGID_34_);}
	.st18{opacity:0.85;clip-path:url(#SVGID_36_);}
	.st19{opacity:0.78;clip-path:url(#SVGID_38_);}
	.st20{clip-path:url(#SVGID_40_);fill:#3A55A5;}
	.st21{opacity:0.56;clip-path:url(#SVGID_42_);}
	.st22{clip-path:url(#SVGID_44_);fill:#EF437C;}
	.st23{opacity:0.62;clip-path:url(#SVGID_46_);}
	.st24{clip-path:url(#SVGID_48_);fill:#FBE313;}
	.st25{clip-path:url(#SVGID_50_);}
	.st26{opacity:0.85;clip-path:url(#SVGID_52_);}
	.st27{opacity:0.78;clip-path:url(#SVGID_54_);}
	.st28{clip-path:url(#SVGID_56_);fill:#3A55A5;}
	.st29{opacity:0.6;clip-path:url(#SVGID_58_);}
	.st30{clip-path:url(#SVGID_60_);fill:#CEAAC6;}
	.st31{opacity:0.62;clip-path:url(#SVGID_62_);}
	.st32{clip-path:url(#SVGID_64_);fill:#FBE313;}
	.st33{clip-path:url(#SVGID_66_);}
	.st34{opacity:0.85;clip-path:url(#SVGID_68_);}
	.st35{opacity:0.78;clip-path:url(#SVGID_70_);}
	.st36{clip-path:url(#SVGID_72_);fill:#F49E00;}
	.st37{opacity:0.65;clip-path:url(#SVGID_74_);}
	.st38{clip-path:url(#SVGID_76_);fill:#EF437C;}
	.st39{opacity:0.85;clip-path:url(#SVGID_78_);}
	.st40{clip-path:url(#SVGID_80_);fill:#3A55A5;}
</style>
<g class="st0">
	<g>
		<defs>
			<rect id="SVGID_1_" x="-7.44" y="-20.26" width="15.44" height="15.49"/>
		</defs>
		<clipPath id="SVGID_2_">
			<use xlink:href="#SVGID_1_"  style="overflow:visible;"/>
		</clipPath>
		<g class="st1">
			<g>
				<defs>
					<rect id="SVGID_3_" x="-7.44" y="-20.26" width="15.44" height="15.49"/>
				</defs>
				<clipPath id="SVGID_4_">
					<use xlink:href="#SVGID_3_"  style="overflow:visible;"/>
				</clipPath>
				<g class="st2">
					<g>
						<g>
							<defs>
								<rect id="SVGID_5_" x="-8" y="-20.63" width="16.57" height="15.9"/>
							</defs>
							<clipPath id="SVGID_6_">
								<use xlink:href="#SVGID_5_"  style="overflow:visible;"/>
							</clipPath>
							<g class="st3">
								<g>
									<g>
										<defs>
											<rect id="SVGID_7_" x="-7.74" y="-20.45" width="16.04" height="15.72"/>
										</defs>
										<clipPath id="SVGID_8_">
											<use xlink:href="#SVGID_7_"  style="overflow:visible;"/>
										</clipPath>
										<polygon class="st4" points="-7.44,-20.25 -7.44,-4.76 -5.21,-4.76 -5.21,-18.38 -0.83,-7.77 1.39,-7.77 5.78,-18.38 
											5.78,-4.76 8,-4.76 8,-20.25 4.61,-20.25 0.28,-9.7 -4.04,-20.25 										"/>
									</g>
								</g>
							</g>
						</g>
						<g>
							<defs>
								<rect id="SVGID_9_" x="-8" y="-20.63" width="16.57" height="15.9"/>
							</defs>
							<clipPath id="SVGID_10_">
								<use xlink:href="#SVGID_9_"  style="overflow:visible;"/>
							</clipPath>
							<g class="st5">
								<g>
									<g>
										<defs>
											<rect id="SVGID_11_" x="-7.74" y="-20.46" width="16.04" height="15.72"/>
										</defs>
										<clipPath id="SVGID_12_">
											<use xlink:href="#SVGID_11_"  style="overflow:visible;"/>
										</clipPath>
										<polygon class="st6" points="-7.44,-20.26 -7.44,-17.48 -6.24,-17.48 -6.24,-7.4 -7.44,-7.4 -7.44,-4.76 -2.11,-4.76 
											-2.11,-7.4 -3.12,-7.4 -3.12,-13.14 -0.67,-4.76 1.42,-4.76 3.93,-13.14 3.93,-7.4 3.07,-7.4 3.07,-4.76 8,-4.76 8,-7.4 
											7.05,-7.4 7.05,-17.48 8,-17.48 8,-20.26 2.54,-20.26 0.5,-9.78 -1.68,-20.26 										"/>
									</g>
								</g>
							</g>
						</g>
						<g>
							<defs>
								<rect id="SVGID_13_" x="-8" y="-20.63" width="16.57" height="15.9"/>
							</defs>
							<clipPath id="SVGID_14_">
								<use xlink:href="#SVGID_13_"  style="overflow:visible;"/>
							</clipPath>
							<g class="st7">
								<g>
									<g>
										<defs>
											<rect id="SVGID_15_" x="-7.74" y="-20.46" width="16.04" height="15.72"/>
										</defs>
										<clipPath id="SVGID_16_">
											<use xlink:href="#SVGID_15_"  style="overflow:visible;"/>
										</clipPath>
										<polygon class="st8" points="-7.44,-20.25 -7.44,-19.7 -5.21,-19.68 -5.21,-5.32 -7.44,-5.32 -7.44,-4.76 -2.11,-4.76 
											-2.11,-5.32 -4.73,-5.32 -4.75,-18.72 -0.67,-4.76 -0.17,-4.76 4.37,-19.67 4.37,-5.33 3.07,-5.32 3.07,-4.76 8,-4.76 
											8,-5.32 6.61,-5.33 6.61,-19.67 8,-19.67 8,-20.26 3.76,-20.26 0.51,-9.33 -2.33,-20.26 										"/>
									</g>
								</g>
							</g>
						</g>
					</g>
				</g>
			</g>
		</g>
	</g>
</g>
<g>
	<g>
		<defs>
			<rect id="SVGID_17_" x="11.13" y="-20.75" width="15.44" height="15.49"/>
		</defs>
		<clipPath id="SVGID_18_">
			<use xlink:href="#SVGID_17_"  style="overflow:visible;"/>
		</clipPath>
		<g class="st9">
			<g>
				<defs>
					<rect id="SVGID_19_" x="11.13" y="-20.75" width="15.44" height="15.49"/>
				</defs>
				<clipPath id="SVGID_20_">
					<use xlink:href="#SVGID_19_"  style="overflow:visible;"/>
				</clipPath>
				<g class="st10">
					<g>
						<g>
							<defs>
								<rect id="SVGID_21_" x="10.58" y="-21.13" width="16.55" height="15.9"/>
							</defs>
							<clipPath id="SVGID_22_">
								<use xlink:href="#SVGID_21_"  style="overflow:visible;"/>
							</clipPath>
							<g class="st11">
								<g>
									<g>
										<defs>
											<rect id="SVGID_23_" x="10.84" y="-20.95" width="16.03" height="15.72"/>
										</defs>
										<clipPath id="SVGID_24_">
											<use xlink:href="#SVGID_23_"  style="overflow:visible;"/>
										</clipPath>
										<polygon class="st12" points="11.13,-20.74 11.13,-5.26 13.36,-5.26 13.36,-18.87 17.74,-8.26 19.96,-8.26 24.35,-18.87 
											24.35,-5.26 26.57,-5.26 26.57,-20.74 23.18,-20.74 18.85,-10.19 14.53,-20.74 										"/>
									</g>
								</g>
							</g>
						</g>
						<g>
							<defs>
								<rect id="SVGID_25_" x="10.58" y="-21.13" width="16.55" height="15.9"/>
							</defs>
							<clipPath id="SVGID_26_">
								<use xlink:href="#SVGID_25_"  style="overflow:visible;"/>
							</clipPath>
							<g class="st13">
								<g>
									<g>
										<defs>
											<rect id="SVGID_27_" x="10.84" y="-20.95" width="16.03" height="15.73"/>
										</defs>
										<clipPath id="SVGID_28_">
											<use xlink:href="#SVGID_27_"  style="overflow:visible;"/>
										</clipPath>
										<polygon class="st14" points="11.13,-20.75 11.13,-17.97 12.33,-17.97 12.33,-7.89 11.13,-7.89 11.13,-5.26 16.46,-5.26 
											16.46,-7.89 15.45,-7.89 15.45,-13.63 17.9,-5.26 19.99,-5.26 22.5,-13.63 22.5,-7.89 21.64,-7.89 21.64,-5.26 
											26.57,-5.26 26.57,-7.89 25.62,-7.89 25.62,-17.97 26.57,-17.97 26.57,-20.75 21.11,-20.75 19.07,-10.28 16.88,-20.75 
																					"/>
									</g>
								</g>
							</g>
						</g>
						<g>
							<defs>
								<rect id="SVGID_29_" x="10.58" y="-21.13" width="16.55" height="15.9"/>
							</defs>
							<clipPath id="SVGID_30_">
								<use xlink:href="#SVGID_29_"  style="overflow:visible;"/>
							</clipPath>
							<g class="st15">
								<g>
									<g>
										<defs>
											<rect id="SVGID_31_" x="10.84" y="-20.95" width="16.03" height="15.73"/>
										</defs>
										<clipPath id="SVGID_32_">
											<use xlink:href="#SVGID_31_"  style="overflow:visible;"/>
										</clipPath>
										<polygon class="st16" points="11.13,-20.74 11.13,-20.19 13.35,-20.17 13.36,-5.81 11.13,-5.81 11.13,-5.26 16.46,-5.26 
											16.46,-5.81 13.84,-5.81 13.82,-19.21 17.9,-5.26 18.4,-5.26 22.94,-20.17 22.94,-5.82 21.64,-5.81 21.64,-5.25 
											26.57,-5.26 26.57,-5.81 25.18,-5.82 25.18,-20.17 26.57,-20.16 26.57,-20.75 22.33,-20.75 19.08,-9.82 16.24,-20.75 
																					"/>
									</g>
								</g>
							</g>
						</g>
					</g>
				</g>
			</g>
		</g>
	</g>
</g>
<g>
	<defs>
		<rect id="SVGID_33_" x="29.69" y="-20.75" width="15.44" height="15.49"/>
	</defs>
	<clipPath id="SVGID_34_">
		<use xlink:href="#SVGID_33_"  style="overflow:visible;"/>
	</clipPath>
	<g class="st17">
		<g>
			<defs>
				<rect id="SVGID_35_" x="29.69" y="-20.75" width="15.44" height="15.49"/>
			</defs>
			<clipPath id="SVGID_36_">
				<use xlink:href="#SVGID_35_"  style="overflow:visible;"/>
			</clipPath>
			<g class="st18">
				<g>
					<g>
						<defs>
							<rect id="SVGID_37_" x="29.13" y="-21.12" width="16.57" height="15.9"/>
						</defs>
						<clipPath id="SVGID_38_">
							<use xlink:href="#SVGID_37_"  style="overflow:visible;"/>
						</clipPath>
						<g class="st19">
							<g>
								<g>
									<defs>
										<rect id="SVGID_39_" x="29.39" y="-20.95" width="16.04" height="15.72"/>
									</defs>
									<clipPath id="SVGID_40_">
										<use xlink:href="#SVGID_39_"  style="overflow:visible;"/>
									</clipPath>
									<polygon class="st20" points="29.69,-20.74 29.69,-5.26 31.91,-5.26 31.91,-18.87 36.3,-8.26 38.52,-8.26 42.91,-18.87 
										42.91,-5.26 45.13,-5.26 45.13,-20.74 41.74,-20.74 37.41,-10.19 33.09,-20.74 									"/>
								</g>
							</g>
						</g>
					</g>
					<g>
						<defs>
							<rect id="SVGID_41_" x="29.13" y="-21.12" width="16.57" height="15.9"/>
						</defs>
						<clipPath id="SVGID_42_">
							<use xlink:href="#SVGID_41_"  style="overflow:visible;"/>
						</clipPath>
						<g class="st21">
							<g>
								<g>
									<defs>
										<rect id="SVGID_43_" x="29.39" y="-20.95" width="16.04" height="15.72"/>
									</defs>
									<clipPath id="SVGID_44_">
										<use xlink:href="#SVGID_43_"  style="overflow:visible;"/>
									</clipPath>
									<polygon class="st22" points="29.69,-20.75 29.69,-17.97 30.89,-17.97 30.89,-7.89 29.69,-7.89 29.69,-5.26 35.02,-5.26 
										35.02,-7.89 34.01,-7.89 34.01,-13.63 36.46,-5.26 38.55,-5.26 41.05,-13.63 41.05,-7.89 40.19,-7.89 40.19,-5.26 
										45.13,-5.26 45.13,-7.89 44.18,-7.89 44.18,-17.97 45.13,-17.97 45.13,-20.75 39.67,-20.75 37.63,-10.28 35.44,-20.75 
																			"/>
								</g>
							</g>
						</g>
					</g>
					<g>
						<defs>
							<rect id="SVGID_45_" x="29.13" y="-21.12" width="16.57" height="15.9"/>
						</defs>
						<clipPath id="SVGID_46_">
							<use xlink:href="#SVGID_45_"  style="overflow:visible;"/>
						</clipPath>
						<g class="st23">
							<g>
								<g>
									<defs>
										<rect id="SVGID_47_" x="29.39" y="-20.95" width="16.04" height="15.72"/>
									</defs>
									<clipPath id="SVGID_48_">
										<use xlink:href="#SVGID_47_"  style="overflow:visible;"/>
									</clipPath>
									<polygon class="st24" points="29.69,-20.74 29.69,-20.19 31.91,-20.17 31.92,-5.81 29.69,-5.81 29.69,-5.26 35.02,-5.26 
										35.02,-5.81 32.4,-5.81 32.37,-19.21 36.46,-5.26 36.96,-5.26 41.5,-20.16 41.5,-5.82 40.2,-5.81 40.2,-5.25 45.13,-5.26 
										45.13,-5.81 43.74,-5.82 43.74,-20.16 45.13,-20.16 45.13,-20.75 40.88,-20.75 37.64,-9.82 34.79,-20.75 									"/>
								</g>
							</g>
						</g>
					</g>
				</g>
			</g>
		</g>
	</g>
</g>
<g>
	<defs>
		<rect id="SVGID_49_" x="29.69" y="-20.75" width="15.44" height="15.49"/>
	</defs>
	<clipPath id="SVGID_50_">
		<use xlink:href="#SVGID_49_"  style="overflow:visible;"/>
	</clipPath>
	<g class="st25">
		<g>
			<defs>
				<rect id="SVGID_51_" x="29.69" y="-20.75" width="15.44" height="15.49"/>
			</defs>
			<clipPath id="SVGID_52_">
				<use xlink:href="#SVGID_51_"  style="overflow:visible;"/>
			</clipPath>
			<g class="st26">
				<g>
					<g>
						<defs>
							<rect id="SVGID_53_" x="29.14" y="-21.13" width="16.55" height="15.9"/>
						</defs>
						<clipPath id="SVGID_54_">
							<use xlink:href="#SVGID_53_"  style="overflow:visible;"/>
						</clipPath>
						<g class="st27">
							<g>
								<g>
									<defs>
										<rect id="SVGID_55_" x="29.4" y="-20.95" width="16.03" height="15.72"/>
									</defs>
									<clipPath id="SVGID_56_">
										<use xlink:href="#SVGID_55_"  style="overflow:visible;"/>
									</clipPath>
									<polygon class="st28" points="29.69,-20.74 29.69,-5.26 31.91,-5.26 31.91,-18.87 36.3,-8.26 38.52,-8.26 42.91,-18.87 
										42.91,-5.26 45.13,-5.26 45.13,-20.74 41.74,-20.74 37.41,-10.19 33.09,-20.74 									"/>
								</g>
							</g>
						</g>
					</g>
					<g>
						<defs>
							<rect id="SVGID_57_" x="29.14" y="-21.13" width="16.55" height="15.9"/>
						</defs>
						<clipPath id="SVGID_58_">
							<use xlink:href="#SVGID_57_"  style="overflow:visible;"/>
						</clipPath>
						<g class="st29">
							<g>
								<g>
									<defs>
										<rect id="SVGID_59_" x="29.4" y="-20.95" width="16.03" height="15.73"/>
									</defs>
									<clipPath id="SVGID_60_">
										<use xlink:href="#SVGID_59_"  style="overflow:visible;"/>
									</clipPath>
									<polygon class="st30" points="29.69,-20.75 29.69,-17.97 30.89,-17.97 30.89,-7.89 29.69,-7.89 29.69,-5.26 35.02,-5.26 
										35.02,-7.89 34.01,-7.89 34.01,-13.63 36.46,-5.26 38.55,-5.26 41.05,-13.63 41.05,-7.89 40.19,-7.89 40.19,-5.26 
										45.13,-5.26 45.13,-7.89 44.18,-7.89 44.18,-17.97 45.13,-17.97 45.13,-20.75 39.67,-20.75 37.63,-10.28 35.44,-20.75 
																			"/>
								</g>
							</g>
						</g>
					</g>
					<g>
						<defs>
							<rect id="SVGID_61_" x="29.14" y="-21.13" width="16.55" height="15.9"/>
						</defs>
						<clipPath id="SVGID_62_">
							<use xlink:href="#SVGID_61_"  style="overflow:visible;"/>
						</clipPath>
						<g class="st31">
							<g>
								<g>
									<defs>
										<rect id="SVGID_63_" x="29.4" y="-20.95" width="16.03" height="15.73"/>
									</defs>
									<clipPath id="SVGID_64_">
										<use xlink:href="#SVGID_63_"  style="overflow:visible;"/>
									</clipPath>
									<polygon class="st32" points="29.69,-20.74 29.69,-20.19 31.91,-20.17 31.92,-5.81 29.69,-5.81 29.69,-5.26 35.02,-5.26 
										35.02,-5.81 32.4,-5.81 32.37,-19.21 36.46,-5.26 36.96,-5.26 41.5,-20.16 41.5,-5.82 40.2,-5.81 40.2,-5.25 45.13,-5.26 
										45.13,-5.81 43.74,-5.82 43.74,-20.16 45.13,-20.16 45.13,-20.75 40.88,-20.75 37.64,-9.82 34.79,-20.75 									"/>
								</g>
							</g>
						</g>
					</g>
				</g>
			</g>
		</g>
	</g>
</g>
<g>
	<defs>
		<rect id="SVGID_65_" x="0.28" y="0.26" width="15.44" height="15.49"/>
	</defs>
	<clipPath id="SVGID_66_">
		<use xlink:href="#SVGID_65_"  style="overflow:visible;"/>
	</clipPath>
	<g class="st33">
		<g>
			<defs>
				<rect id="SVGID_67_" x="0.28" y="0.26" width="15.44" height="15.49"/>
			</defs>
			<clipPath id="SVGID_68_">
				<use xlink:href="#SVGID_67_"  style="overflow:visible;"/>
			</clipPath>
			<g class="st34">
				<g>
					<g>
						<defs>
							<rect id="SVGID_69_" x="-0.28" y="-0.11" width="16.57" height="15.9"/>
						</defs>
						<clipPath id="SVGID_70_">
							<use xlink:href="#SVGID_69_"  style="overflow:visible;"/>
						</clipPath>
						<g class="st35">
							<g>
								<g>
									<defs>
										<rect id="SVGID_71_" x="-0.02" y="0.06" width="16.04" height="15.72"/>
									</defs>
									<clipPath id="SVGID_72_">
										<use xlink:href="#SVGID_71_"  style="overflow:visible;"/>
									</clipPath>
									<polygon class="st36" points="0.28,0.27 0.28,15.74 2.5,15.74 2.5,2.14 6.89,12.74 9.11,12.74 13.5,2.14 13.5,15.74 
										15.72,15.74 15.72,0.27 12.33,0.27 8,10.82 3.68,0.27 									"/>
								</g>
							</g>
						</g>
					</g>
					<g>
						<defs>
							<rect id="SVGID_73_" x="-0.28" y="-0.11" width="16.57" height="15.9"/>
						</defs>
						<clipPath id="SVGID_74_">
							<use xlink:href="#SVGID_73_"  style="overflow:visible;"/>
						</clipPath>
						<g class="st37">
							<g>
								<g>
									<defs>
										<rect id="SVGID_75_" x="-0.02" y="0.06" width="16.04" height="15.72"/>
									</defs>
									<clipPath id="SVGID_76_">
										<use xlink:href="#SVGID_75_"  style="overflow:visible;"/>
									</clipPath>
									<polygon class="st38" points="0.28,0.26 0.28,3.04 1.48,3.04 1.48,13.11 0.28,13.11 0.28,15.74 5.61,15.74 5.61,13.11 
										4.6,13.11 4.6,7.38 7.05,15.74 9.14,15.74 11.64,7.38 11.64,13.11 10.78,13.11 10.78,15.74 15.72,15.74 15.72,13.11 
										14.77,13.11 14.77,3.04 15.72,3.04 15.72,0.26 10.26,0.26 8.22,10.73 6.03,0.26 									"/>
								</g>
							</g>
						</g>
					</g>
					<g>
						<defs>
							<rect id="SVGID_77_" x="-0.28" y="-0.11" width="16.57" height="15.9"/>
						</defs>
						<clipPath id="SVGID_78_">
							<use xlink:href="#SVGID_77_"  style="overflow:visible;"/>
						</clipPath>
						<g class="st39">
							<g>
								<g>
									<defs>
										<rect id="SVGID_79_" x="-0.02" y="0.06" width="16.04" height="15.72"/>
									</defs>
									<clipPath id="SVGID_80_">
										<use xlink:href="#SVGID_79_"  style="overflow:visible;"/>
									</clipPath>
									<polygon class="st40" points="0.28,0.27 0.28,0.82 2.5,0.84 2.51,15.19 0.28,15.19 0.28,15.74 5.61,15.74 5.61,15.19 
										2.99,15.19 2.96,1.8 7.05,15.74 7.55,15.74 12.09,0.85 12.09,15.19 10.79,15.19 10.79,15.76 15.72,15.74 15.72,15.19 
										14.33,15.19 14.33,0.85 15.72,0.85 15.72,0.26 11.47,0.26 8.23,11.19 5.38,0.26 									"/>
								</g>
							</g>
						</g>
					</g>
				</g>
			</g>
		</g>
	</g>
</g>
</svg>
